<?xml version="1.0" encoding="utf-8"?>
<!-- Generator: Adobe Illustrator 28.1.0, SVG Export Plug-In . SVG Version: 6.00 Build 0)  -->
<svg version="1.1" id="Calque_1" xmlns="http://www.w3.org/2000/svg" xmlns:xlink="http://www.w3.org/1999/xlink" x="0px" y="0px"
	 width="35px" height="45px" viewBox="0 0 35 45" style="enable-background:new 0 0 35 45;" xml:space="preserve">
<style type="text/css">
	.st0{fill:#FFFFFF;}
	.st1{fill:#02BE8E;}
</style>
<g>
	<g>
		<path class="st0" d="M7,35.2c1.3,0,2,0.8,1.7,2.1c-0.1,0.9-0.7,1.5-1.5,1.8c0.1,0.1,0.2,0.2,0.2,0.4l0.7,2c0.1,0.2,0,0.3-0.2,0.3
			H7.3c-0.4,0-0.5-0.1-0.6-0.3L6.3,40c-0.1-0.3-0.2-0.4-0.3-0.5c-0.1-0.1-0.3-0.1-0.6-0.1H4.6l-0.4,2.2c0,0.2-0.1,0.3-0.4,0.3H3.3
			C3,41.8,3,41.8,3,41.5l1.1-6c0-0.2,0.1-0.3,0.4-0.3H7z M6.7,36.3H5.1l-0.3,1.9h1.6c0.6,0,1-0.3,1.1-1C7.6,36.7,7.3,36.3,6.7,36.3z
			"/>
		<path class="st0" d="M9.3,38.7c0.2-1.2,1.1-1.8,2.5-1.8c1.4,0,2,0.7,1.8,1.9l-0.2,1.4c-0.2,1.2-1.1,1.8-2.4,1.8
			c-1.4,0-2-0.7-1.8-1.9L9.3,38.7z M12.5,38.7c0.1-0.6-0.2-0.9-0.9-0.9c-0.7,0-1.1,0.3-1.2,0.9l-0.2,1.4c-0.1,0.6,0.2,0.9,0.9,0.9
			c0.7,0,1.1-0.3,1.2-0.9L12.5,38.7z"/>
		<path class="st0" d="M14.4,38.7c0.2-1.2,1-1.8,2.4-1.8c1.1,0,1.6,0.5,1.8,1.2c0,0.2,0,0.3-0.2,0.4l-0.4,0.1
			c-0.3,0.1-0.3,0-0.4-0.2c-0.1-0.4-0.4-0.6-0.9-0.6c-0.7,0-1.1,0.3-1.2,0.9l-0.2,1.4c-0.1,0.6,0.2,0.9,0.9,0.9
			c0.5,0,0.9-0.2,1.1-0.6c0.1-0.2,0.2-0.3,0.4-0.2l0.4,0.1c0.2,0.1,0.3,0.2,0.1,0.4C17.7,41.6,17,42,15.9,42c-1.4,0-2-0.8-1.7-2
			L14.4,38.7z"/>
		<path class="st0" d="M22.8,41.5c0.1,0.3,0,0.3-0.2,0.3h-0.5c-0.3,0-0.4,0-0.5-0.3l-0.4-1.3c-0.1-0.3-0.3-0.5-0.7-0.5h-0.6
			l-0.3,1.7c0,0.2-0.1,0.3-0.4,0.3h-0.5c-0.2,0-0.3-0.1-0.3-0.3l1.1-6.3c0-0.2,0.1-0.3,0.4-0.3h0.5c0.2,0,0.3,0.1,0.2,0.3l-0.6,3.6
			h0.4h0.1l1.6-1.6c0.2-0.2,0.3-0.2,0.6-0.2h0.5c0.3,0,0.3,0.1,0.1,0.3l-1.7,1.7c0.2,0.1,0.4,0.4,0.5,0.8L22.8,41.5z"/>
		<path class="st0" d="M23.9,38.8c0.2-1.2,1.1-1.9,2.5-1.9c0.6,0,1.1,0.2,1.5,0.5c0.3,0.3,0.5,0.7,0.4,1.3c-0.2,0.9-0.9,1.3-2.3,1.3
			c-0.3,0-0.7,0-1.1-0.1l-0.1,0.3c-0.1,0.6,0.2,0.9,0.9,0.9c0.5,0,0.9-0.2,1.2-0.5c0.2-0.2,0.3-0.3,0.5-0.1l0.3,0.2
			c0.2,0.1,0.2,0.3,0,0.5c-0.5,0.6-1.2,0.9-2.2,0.9c-0.7,0-1.2-0.2-1.5-0.6c-0.3-0.4-0.4-0.9-0.3-1.5L23.9,38.8z M26.3,37.8
			c-0.7,0-1.2,0.4-1.3,1l0,0.2c0.4,0.1,0.8,0.1,1.1,0.1c0.6,0,1-0.2,1.1-0.6C27.3,38,26.9,37.8,26.3,37.8z"/>
		<path class="st0" d="M30.6,35.9c0.2,0,0.3,0.1,0.2,0.3L30.7,37h1.1c0.2,0,0.3,0.1,0.2,0.3l-0.1,0.4c0,0.2-0.1,0.3-0.3,0.3h-1.1
			l-0.3,1.9c-0.1,0.4,0,0.7,0.1,0.9c0.1,0.1,0.4,0.2,0.8,0.2c0.2,0,0.3,0.1,0.2,0.3l-0.1,0.4c0,0.2-0.1,0.3-0.3,0.3
			c-0.8,0-1.3-0.1-1.6-0.4c-0.3-0.3-0.3-0.8-0.2-1.6l0.3-1.9h-0.6c-0.2,0-0.3-0.1-0.2-0.3l0.1-0.4c0-0.2,0.1-0.3,0.3-0.3h0.6
			l0.1-0.8c0-0.2,0.1-0.3,0.3-0.3H30.6z"/>
	</g>
	<g>
		<path class="st1" d="M25.9,3c-3.1,0-13.7,6.5-13.7,6.5C22.8,16,27.5,18,30.4,13.2c-1.8,0.3-6.9-2.7-8.3-3.6
			c1.6-0.8,6.6-3.8,8.3-3.6C29.5,4.3,27.7,3.3,25.9,3z"/>
		<path class="st1" d="M13.4,13.8c-4.1,1.8-8.8,4.7-8.8,4.7s4.8,2.7,8.8,4.7c1.4-0.9,3.4-1.8,5-2.7c-1.9-1.2-3.8-2.2-3.8-2.2
			s1.8-1.3,3.8-2.2C16.6,14.9,14.9,14,13.4,13.8z"/>
		<path class="st1" d="M25.9,19.6c-3.1,0-13.7,6.5-13.7,6.5s10.6,6.5,13.7,6.5c1.8,0,3.5-1.2,4.5-2.7c-1.8,0.3-6.9-2.7-8.3-3.6
			c1.6-0.8,6.6-3.8,8.3-3.6C29.4,21,27.9,20,25.9,19.6z"/>
	</g>
</g>
</svg>
