<?xml version="1.0" encoding="utf-8"?>
<!-- Generator: Adobe Illustrator 28.1.0, SVG Export Plug-In . SVG Version: 6.00 Build 0)  -->
<svg version="1.1" id="Calque_1" xmlns="http://www.w3.org/2000/svg" xmlns:xlink="http://www.w3.org/1999/xlink" x="0px" y="0px"
	 width="140px" height="32px" viewBox="0 0 140 32" style="enable-background:new 0 0 140 32;" xml:space="preserve">
<style type="text/css">
	.st0{fill:#1B243F;}
	.st1{fill:#02BE8E;}
</style>
<g>
	<g>
		<path class="st0" d="M48.4,3.9c4.7,0,7.2,3,6.3,7.8c-0.5,3.4-2.4,5.6-5.6,6.6c0.3,0.3,0.6,0.8,0.8,1.5l2.5,7.2
			c0.3,0.6,0,1.2-0.8,1.2h-2c-1.5,0-1.9-0.2-2.1-1l-1.8-5.8c-0.3-1-0.6-1.6-1.1-1.9c-0.4-0.3-1.2-0.4-2.4-0.4h-2.8l-1.4,8
			c-0.2,0.9-0.5,1.2-1.4,1.2h-2c-0.9,0-1.1-0.3-1-1.2L37.6,5c0.2-0.9,0.5-1.2,1.4-1.2H48.4z M47.3,7.8h-5.9l-1.2,7h5.9
			c2.3,0,3.8-1.2,4.2-3.5C50.7,9.1,49.6,7.8,47.3,7.8z"/>
		<path class="st0" d="M56.9,16.6c0.8-4.3,4-6.7,9-6.7c5,0,7.4,2.7,6.7,7l-0.9,5c-0.8,4.3-3.9,6.6-9,6.6c-5,0-7.4-2.7-6.7-6.9
			L56.9,16.6z M68.7,16.7c0.4-2.1-0.9-3.2-3.3-3.2c-2.5,0-4.1,1.2-4.5,3.2l-0.9,5c-0.4,2,0.8,3.2,3.3,3.2c2.5,0,4.1-1.2,4.5-3.2
			L68.7,16.7z"/>
		<path class="st0" d="M75.5,16.6c0.8-4.5,3.7-6.7,8.8-6.7c3.9,0,6,1.8,6.4,4.5c0.1,0.9-0.1,1.3-0.9,1.5l-1.4,0.4
			c-0.9,0.3-1.2,0.1-1.4-0.7c-0.3-1.5-1.5-2.2-3.4-2.2c-2.5,0-3.9,1.1-4.3,3.4l-0.9,5c-0.4,2.2,0.6,3.3,3.1,3.3
			c1.9,0,3.2-0.8,4.1-2.4c0.4-0.8,0.8-1,1.6-0.7l1.4,0.5c0.8,0.3,1,0.7,0.4,1.5c-1.7,3-4.4,4.5-8.2,4.5c-5.1,0-7.2-2.8-6.4-7.2
			L75.5,16.6z"/>
		<path class="st0" d="M106.3,26.8c0.3,0.9,0.1,1.3-0.9,1.3h-1.7c-1.2,0-1.4-0.1-1.7-1l-1.3-4.7c-0.3-1.2-1-1.7-2.4-1.7h-2L95.2,27
			c-0.1,0.8-0.4,1.1-1.3,1.1h-1.7c-0.9,0-1.1-0.3-0.9-1.1l4.1-23c0.2-0.8,0.5-1.1,1.3-1.1h1.7c0.9,0,1.1,0.3,0.9,1.1l-2.3,13.3h1.5
			h0.2l5.7-6c0.7-0.7,0.9-0.8,2.2-0.8h1.7c1.1,0,1.2,0.4,0.4,1.2l-6.2,6.4c0.9,0.4,1.5,1.4,1.9,2.8L106.3,26.8z"/>
		<path class="st0" d="M110.4,16.8c0.8-4.5,4.1-6.9,9.2-6.9c2.3,0,4.1,0.6,5.3,1.7c1.2,1.2,1.7,2.7,1.3,4.6
			c-0.6,3.3-3.3,4.7-8.4,4.7c-1.2,0-2.6-0.1-4.2-0.4l-0.2,1.2c-0.4,2.2,0.7,3.4,3.3,3.4c1.9,0,3.4-0.6,4.4-1.8
			c0.7-0.8,1.1-0.9,1.8-0.4l1.1,0.7c0.6,0.4,0.7,1,0.1,1.7c-1.7,2.1-4.3,3.2-8,3.2c-2.7,0-4.5-0.7-5.6-2.2c-1.1-1.4-1.4-3.3-0.9-5.5
			L110.4,16.8z M118.9,13.2c-2.5,0-4.2,1.4-4.7,3.6l-0.1,0.7c1.6,0.3,3,0.4,4.2,0.4c2.4,0,3.7-0.7,4-2.1
			C122.6,14.2,121.4,13.2,118.9,13.2z"/>
		<path class="st0" d="M134.9,6.3c0.8,0,1,0.2,0.9,1l-0.5,3.1h3.9c0.8,0,1,0.2,0.8,1l-0.2,1.6c-0.1,0.7-0.5,1.1-1.2,1.1h-3.9
			l-1.2,6.9c-0.3,1.6-0.2,2.7,0.3,3.2c0.4,0.5,1.4,0.8,2.9,0.8c0.8,0,1,0.2,0.9,1.1l-0.3,1.6c-0.2,0.8-0.4,1.1-1.3,1.1
			c-2.9,0.1-4.8-0.4-5.8-1.5c-1-1.1-1.2-3.1-0.7-6l1.2-7h-2.4c-0.8,0-1-0.3-0.9-1.1l0.3-1.6c0.1-0.8,0.4-1,1.3-1h2.3l0.5-3.1
			c0.1-0.8,0.4-1,1.2-1H134.9z"/>
	</g>
	<g>
		<path class="st1" d="M23.1,0.1c-3.4,0-14.8,7-14.8,7c11.5,7,16.5,9.2,19.7,4.1c-2,0.3-7.4-2.9-8.9-3.9c1.7-0.8,7.1-4.1,8.9-3.9
			C27,1.5,25,0.3,23.1,0.1z"/>
		<path class="st1" d="M9.5,11.7c-4.5,2-9.5,5-9.5,5s5.2,2.9,9.5,5c1.5-1,3.6-2,5.5-2.9c-2.1-1.3-4.1-2.4-4.1-2.4s2-1.4,4.1-2.4
			C13,12.9,11.2,11.9,9.5,11.7z"/>
		<path class="st1" d="M23.1,18c-3.4,0-14.8,7-14.8,7s11.5,7,14.8,7c2,0,3.8-1.3,4.9-2.9c-2,0.3-7.4-2.9-8.9-3.9
			c1.7-0.8,7.1-4.1,8.9-3.9C26.8,19.5,25.2,18.4,23.1,18z"/>
	</g>
</g>
</svg>
