<?xml version="1.0" encoding="utf-8"?>
<!-- Generator: Adobe Illustrator 24.1.3, SVG Export Plug-In . SVG Version: 6.00 Build 0)  -->
<svg version="1.1" id="Calque_1" xmlns="http://www.w3.org/2000/svg" xmlns:xlink="http://www.w3.org/1999/xlink" x="0px" y="0px"
	 viewBox="0 0 346 512" style="enable-background:new 0 0 346 512;" xml:space="preserve">
<style type="text/css">
	.st0{fill:#FFFFFF;}
	.st1{fill:#36B18A;}
</style>
<g>
	<g>
		<path class="st0" d="M56.1,434.7H34.3l-16.5-25.1h-0.2v25.1H0.1v-65.4h26.2c13.3,0,23.4,6.2,23.4,20.1c0,9-5.2,16.8-14.7,18.5
			L56.1,434.7z M17.6,398.6h1.7c5.7,0,12.1-1,12.1-8.1c0-7.1-6.4-8.1-12.1-8.1h-1.7V398.6z"/>
		<path class="st0" d="M129.7,400.8c0,21.2-15.6,36.1-37.2,36.1c-21.6,0-37.2-14.9-37.2-36.1c0-19.8,17.9-33.6,37.2-33.6
			S129.7,381,129.7,400.8z M73.4,400.9c0,11.3,8.6,19.5,19,19.5s19-8.2,19-19.5c0-9-8.6-17.2-19-17.2S73.4,391.9,73.4,400.9z"/>
		<path class="st0" d="M183.7,391.3c-3.6-4.7-9.4-7.2-15.4-7.2c-10.7,0-18,8-18,18.1c0,10.3,7.3,17.8,18.2,17.8
			c5.7,0,11.4-2.7,15.1-6.9v20.4c-5.8,1.7-10,3-15.5,3c-9.4,0-18.3-3.5-25.3-9.6c-7.4-6.5-10.8-15-10.8-24.7
			c0-8.9,3.5-17.5,9.9-23.9c6.6-6.6,16.2-10.6,25.6-10.6c5.6,0,10.8,1.2,16,3.3V391.3z"/>
		<path class="st0" d="M231.1,369.3h21.7l-26.8,30.9l29.2,34.4h-22.7L210,406.3h-0.2v28.3h-17.5v-65.4h17.5v27h0.2L231.1,369.3z"/>
		<path class="st0" d="M275.3,383.7v10.9H295V409h-19.7v11.3h20.8v14.4h-38.3v-65.4h38.3v14.4H275.3z"/>
		<path class="st0" d="M331.5,434.7h-17.5v-51h-14.5v-14.4h46.4v14.4h-14.5V434.7z"/>
	</g>
	<g>
		<path class="st1" d="M138.7,466.8c-3.6-4.7-9.4-7.2-15.4-7.2c-10.7,0-18,8-18,18.1c0,10.3,7.3,17.8,18.2,17.8
			c5.7,0,11.4-2.7,15.1-6.9V509c-5.8,1.7-10,3-15.5,3c-9.4,0-18.3-3.5-25.3-9.6c-7.4-6.5-10.8-15-10.8-24.7c0-8.9,3.5-17.5,9.9-23.9
			c6.6-6.6,16.2-10.6,25.6-10.6c5.6,0,10.8,1.2,16,3.3V466.8z"/>
		<path class="st1" d="M147.2,444.9h24.8c18.8,0,34.2,14.3,34.2,32.7c0,18.4-15.5,32.7-34.2,32.7h-24.8V444.9z M164.7,495.9h3.9
			c10.5,0,19.4-5.5,19.4-18.3c0-11.7-7.9-18.3-19.2-18.3h-4.1V495.9z"/>
		<path class="st1" d="M249.1,461.7c-3.2-2.6-7.3-4.3-11.6-4.3c-3.2,0-7.5,1.8-7.5,5.5c0,3.8,4.7,5.3,7.8,6.2l4.5,1.3
			c9.4,2.7,16.6,7.3,16.6,17.9c0,6.5-1.6,13.2-7,17.6c-5.3,4.3-12.3,6.2-19.1,6.2c-8.5,0-16.8-2.8-23.7-7.5l7.5-13.7
			c4.4,3.7,9.6,6.8,15.5,6.8c4.1,0,8.5-2,8.5-6.6c0-4.8-6.9-6.4-10.6-7.5c-11-3-18.2-5.8-18.2-18.5c0-13.3,9.7-21.9,23.2-21.9
			c6.8,0,15.1,2.1,21.1,5.4L249.1,461.7z"/>
	</g>
	<path class="st0" d="M341.4,6.4c-0.5-2.8-2.7-4.9-5.6-5.4l0,0c-4.8-0.8-96.6-14.1-187.6,88.8c-9.9-3-33.4-7.8-60.6,2.7
		c-31.9,12.3-58,41.2-77.4,85.7c-1.2,2.8-0.3,6,2.2,7.8c2.5,1.8,6,1.7,8.3-0.2c0.4-0.3,38.5-30.2,74.9-21.4
		c-5.2,9.2-10.4,18.7-15.5,29c-1.2,2.5-0.7,5.5,1.3,7.5l53.9,52.3c1.3,1.2,3,1.9,4.8,1.9c1,0,2-0.2,2.9-0.7
		c10.6-4.9,20.4-10,29.9-15.1c9,35.4-21.7,72.3-22.1,72.7c-2,2.4-2,5.7-0.2,8.1c1.3,1.7,3.3,2.6,5.4,2.6c0.9,0,1.8-0.2,2.6-0.5
		c45.9-18.9,75.7-44.2,88.3-75.1c10.8-26.4,5.9-49.2,2.8-58.8C355.9,100.1,342.2,11,341.4,6.4z M328.5,13.5L328.5,13.5
		c0.5,9.2,0.1,30.6-9.6,58.2l-50.4-48.9C297,13.3,319,13,328.5,13.5z M32.8,162.7c16.3-29.4,36.2-48.8,59.5-57.9
		c19.2-7.5,36.4-5.9,46.4-3.8c-12.2,14.9-24.3,32-36.2,51.6C76.4,144.8,50.2,153.7,32.8,162.7z M141.5,240.7L141.5,240.7L94.4,195
		c4.2-8.2,8.4-16,12.7-23.5l58.5,56.8C158,232.5,150,236.6,141.5,240.7z M234.4,242.4c-9.3,22.7-29.3,42.1-59.7,58
		c9.3-16.9,18.5-42.3,10.4-67.7c20.2-11.5,37.8-23.3,53.2-35.1C240.5,207.2,242.1,223.8,234.4,242.4L234.4,242.4z M177.9,221.6
		L177.9,221.6L114,159.7C161.2,82,213.1,45.1,254.6,28l58.9,57.2C295.9,125.4,258,175.8,177.9,221.6z M96.6,247.9
		c2.6-2.6,2.6-6.7,0-9.3c-2.6-2.6-7-2.6-9.6,0l-43.8,42.5c-2.6,2.6-2.6,6.7,0,9.3c1.4,1.3,3,1.9,4.8,1.9s3.5-0.7,4.8-1.9L96.6,247.9
		z M95.9,275.1L52,317.6c-2.6,2.6-2.6,6.7,0,9.3c1.4,1.3,3,1.9,4.8,1.9c1.8,0,3.5-0.7,4.8-1.9l43.8-42.5c2.6-2.6,2.6-6.7,0-9.3
		C102.9,272.6,98.6,272.6,95.9,275.1z M58.9,230c-2.6-2.6-6.9-2.6-9.6,0L5.6,272.5c-2.6,2.6-2.6,6.7,0,9.3c1.3,1.2,3.1,1.9,4.7,1.9
		c1.8,0,3.5-0.7,4.8-1.9l43.8-42.5C61.5,236.7,61.5,232.6,58.9,230z M273.5,66.8c-6.8-6.6-16-10.3-25.7-10.3
		c-9.7,0-18.8,3.7-25.7,10.3c-14.2,13.7-14.2,36.1,0,49.8c7,6.8,16.4,10.3,25.7,10.3c9.3,0,18.6-3.4,25.7-10.3
		C287.7,102.9,287.7,80.6,273.5,66.8z M264,107.3L264,107.3c-8.9,8.6-23.3,8.6-32.2,0s-8.9-22.6,0-31.2c4.3-4.2,10-6.5,16.1-6.5
		c6.1,0,11.8,2.3,16.1,6.5C272.8,84.7,272.8,98.7,264,107.3z"/>
</g>
</svg>
